HIERARCHY
ROOT root
{
	OFFSET 0.000000 0.000000 0.000000
	CHANNELS 6 Xposition Yposition Zposition Zrotation Yrotation Xrotation
	JOINT lhip
	{
		OFFSET 0.058581 -0.082280 -0.017664
		CHANNELS 3 Zrotation Yrotation Xrotation
		JOINT lknee
		{
			OFFSET 0.043451 -0.386469 0.008037
			CHANNELS 3 Zrotation Yrotation Xrotation
			JOINT lankle
			{
				OFFSET -0.014790 -0.426874 -0.037428
				CHANNELS 3 Zrotation Yrotation Xrotation
				JOINT ltoe
				{
					OFFSET 0.041054 -0.060286 0.122042
					CHANNELS 3 Zrotation Yrotation Xrotation
					End Site
					{
						OFFSET 0.000000 0.000000 0.000000
					}
				}
			}
		}
	}
	JOINT rhip
	{
		OFFSET -0.060310 -0.090513 -0.013543
		CHANNELS 3 Zrotation Yrotation Xrotation
		JOINT rknee
		{
			OFFSET -0.043257 -0.383688 -0.004843
			CHANNELS 3 Zrotation Yrotation Xrotation
			JOINT rankle
			{
				OFFSET 0.019056 -0.420046 -0.034562
				CHANNELS 3 Zrotation Yrotation Xrotation
				JOINT rtoe
				{
					OFFSET -0.034840 -0.062106 0.130323
					CHANNELS 3 Zrotation Yrotation Xrotation
					End Site
					{
						OFFSET 0.000000 0.000000 0.000000
					}
				}
			}
		}
	}
	JOINT lowerback
	{
		OFFSET 0.004439 0.124404 -0.038385
		CHANNELS 3 Zrotation Yrotation Xrotation
		JOINT upperback
		{
			OFFSET 0.004488 0.137956 0.026820
			CHANNELS 3 Zrotation Yrotation Xrotation
			JOINT chest
			{
				OFFSET -0.002265 0.056032 0.002855
				CHANNELS 3 Zrotation Yrotation Xrotation
				JOINT lowerneck
				{
					OFFSET -0.013390 0.211636 -0.033468
					CHANNELS 3 Zrotation Yrotation Xrotation
					JOINT upperneck
					{
						OFFSET 0.010113 0.088937 0.050410
						CHANNELS 3 Zrotation Yrotation Xrotation
						End Site
						{
							OFFSET 0.000000 0.000000 0.000000
						}
					}
				}
				JOINT lclavicle
				{
					OFFSET 0.071702 0.114000 -0.018898
					CHANNELS 3 Zrotation Yrotation Xrotation
					JOINT lshoulder
					{
						OFFSET 0.122921 0.045205 -0.019046
						CHANNELS 3 Zrotation Yrotation Xrotation
						JOINT lelbow
						{
							OFFSET 0.255332 -0.015649 -0.022946
							CHANNELS 3 Zrotation Yrotation Xrotation
							JOINT lwrist
							{
								OFFSET 0.265709 0.012698 -0.007375
								CHANNELS 3 Zrotation Yrotation Xrotation
								End Site
								{
									OFFSET 0.000000 0.000000 0.000000
								}
							}
						}
					}
				}
				JOINT rclavicle
				{
					OFFSET -0.082954 0.112472 -0.023707
					CHANNELS 3 Zrotation Yrotation Xrotation
					JOINT rshoulder
					{
						OFFSET -0.113228 0.046853 -0.008472
						CHANNELS 3 Zrotation Yrotation Xrotation
						JOINT relbow
						{
							OFFSET -0.260127 -0.014369 -0.031269
							CHANNELS 3 Zrotation Yrotation Xrotation
							JOINT rwrist
							{
								OFFSET -0.269108 0.006794 -0.006027
								CHANNELS 3 Zrotation Yrotation Xrotation
								End Site
								{
									OFFSET 0.000000 0.000000 0.000000
								}
							}
						}
					}
				}
			}
		}
	}
}
MOTION
Frames: 10
Frame Time: 0.033333
0.151139 -0.367382 0.983314 -5.114948 0.871683 89.842902 2.020767 -7.582959 -23.674781 -6.923581 -3.478230 23.423129 3.776284 9.539965 -16.129019 0.000000 -0.000000 0.000000 -6.814738 -8.705722 5.420942 4.295273 -9.510558 23.939027 7.335531 -11.794016 -19.362392 0.000000 -0.000000 0.000000 -0.887289 8.304263 11.429037 0.966695 -0.132037 -6.621932 0.433053 2.238090 0.708303 5.149294 1.447403 -13.140798 -3.070206 -7.582697 8.774783 -26.817511 4.240135 -3.363606 -46.190557 -2.255710 4.835888 13.783868 -26.491770 -4.758483 16.547481 -8.020926 -5.618293 27.281216 8.899635 -4.861282 41.483384 24.299894 11.671104 -15.475803 40.581205 1.767055 -10.248522 9.126530 16.740762 
0.145044 -0.353094 0.979352 -6.968735 0.582252 89.905911 2.910701 -7.285761 -25.225475 -6.849645 -2.112051 24.526127 3.054573 10.033862 -16.003761 0.000000 -0.000000 0.000000 -6.558249 -9.129374 5.677897 4.534739 -9.786641 20.855338 6.069131 -11.363724 -22.600002 0.000000 -0.000000 0.000000 -0.691976 8.548160 11.738049 0.734398 -0.138195 -6.802400 0.409249 2.428493 0.733969 4.795729 2.553098 -13.033570 -2.911047 -7.214398 9.368583 -26.830447 4.309359 -3.598796 -46.379876 -2.627157 4.937375 13.968057 -28.587746 -5.084424 16.659305 -7.846883 -5.786639 27.397396 8.821869 -4.403774 42.374043 23.439444 12.091393 -14.199485 39.793308 3.297360 -10.260966 8.989757 16.354506 
0.138516 -0.337706 0.976431 -8.676794 0.550341 90.009612 4.009470 -6.718735 -26.643976 -6.640141 -1.328413 25.173970 2.371027 10.192703 -15.523090 0.000000 -0.000000 0.000000 -5.665258 -9.381848 5.678948 4.511896 -9.473324 17.928831 4.852857 -11.490347 -24.807722 0.000000 -0.000000 0.000000 -0.421558 8.574992 12.341826 0.595041 -0.243505 -7.162460 0.421335 2.551506 0.630311 4.492043 3.641373 -12.896412 -2.683732 -6.601032 9.727914 -26.646994 4.485503 -3.693547 -46.814415 -3.071033 5.025488 14.113722 -30.562229 -4.983555 16.903581 -7.723800 -6.676948 27.584298 8.704042 -3.975558 43.195148 22.890325 12.456178 -13.209443 38.913476 4.391417 -10.068992 8.904686 15.707827 
0.131354 -0.322071 0.974452 -10.223997 0.660452 90.089407 5.179176 -6.137177 -27.808759 -6.220003 -0.797388 25.497366 1.885078 10.332415 -14.578355 0.000000 -0.000000 0.000000 -4.536320 -9.509437 5.460195 4.449408 -8.487005 15.446384 3.571543 -11.158010 -26.186911 0.000000 -0.000000 0.000000 -0.368412 8.503689 12.892484 0.649991 -0.425852 -7.463868 0.615350 2.567706 0.609206 4.120896 4.808992 -12.793543 -2.288423 -5.974951 9.973651 -26.363341 4.381531 -3.410103 -47.319489 -3.439380 5.152056 14.331854 -32.421569 -4.973083 17.950636 -7.172142 -7.500226 27.560248 8.611349 -3.636052 43.995297 22.333934 12.758249 -12.151157 38.301130 5.635990 -11.007977 8.950143 15.077973 
0.123823 -0.306805 0.973761 -11.582488 0.977145 89.960353 6.362526 -5.383937 -28.296173 -5.811494 -0.962537 25.220411 1.439271 10.505623 -13.844752 0.000000 -0.000000 0.000000 -3.502881 -9.563349 5.328594 4.761019 -7.321943 13.816215 2.638462 -10.632111 -26.494558 0.000000 -0.000000 0.000000 -0.263974 8.320160 13.564148 0.770401 -0.601242 -7.591718 0.926546 2.382259 0.683253 3.854944 5.766250 -12.721560 -1.972633 -5.026821 9.746092 -26.252049 4.091698 -3.350875 -47.589152 -3.593268 5.369311 14.424929 -33.832825 -4.823196 18.365673 -7.003001 -8.173604 27.550196 8.646581 -3.434574 44.379294 21.555857 13.015035 -10.970174 38.150401 6.786772 -11.205567 8.838357 14.470271 
0.116331 -0.292726 0.974467 -12.594071 1.495934 89.883480 7.635798 -4.598997 -28.451281 -5.421044 -1.401272 24.374873 1.076827 10.503463 -12.841511 0.000000 -0.000000 0.000000 -2.431645 -9.294737 5.113578 5.370350 -6.833488 12.386682 2.199365 -9.879292 -25.684825 0.000000 -0.000000 0.000000 -0.206436 7.937947 13.961415 1.049637 -0.783131 -7.397101 1.318163 2.160370 0.550478 3.632291 6.819254 -12.719180 -1.688320 -4.115428 9.696171 -26.109805 3.754164 -3.186271 -47.969869 -3.668628 5.529259 14.547013 -34.737296 -4.389384 17.578317 -6.625122 -8.167127 27.510636 8.409579 -3.176254 44.694372 20.666122 12.957373 -10.016095 38.085170 7.557728 -10.811399 8.748227 13.371626 
0.109576 -0.279436 0.975355 -13.338630 1.908751 89.877116 8.676015 -4.293470 -28.639811 -4.882990 -1.753543 23.480400 0.706051 10.434678 -11.350672 0.000000 -0.000000 0.000000 -1.487494 -8.598021 5.087443 6.178322 -6.692225 10.465319 1.910026 -9.387676 -24.678587 0.000000 -0.000000 0.000000 -0.240377 7.648911 14.311884 1.318064 -1.041484 -7.327478 1.662512 1.966155 0.452697 3.354076 7.580627 -12.411726 -1.210251 -3.485316 9.250577 -25.784448 3.168402 -2.840442 -48.414701 -3.985409 5.914425 14.534920 -34.823378 -3.704710 17.440297 -6.493997 -7.755624 27.355864 8.093512 -2.861287 45.029016 19.452314 12.748966 -9.620187 37.961824 7.658367 -11.317970 8.871911 12.119040 
0.103279 -0.267871 0.975725 -13.762336 2.111488 89.671436 9.311037 -4.258088 -28.520975 -4.295166 -2.238339 22.524834 0.200361 10.365837 -10.005671 0.000000 -0.000000 0.000000 -0.854340 -8.409345 4.823600 6.726269 -6.865008 9.886590 1.704271 -9.001144 -24.122753 0.000000 -0.000000 0.000000 -0.415098 7.446448 14.749719 1.528076 -1.349350 -7.604742 1.995861 1.707972 0.638874 3.100941 8.075889 -11.842534 -0.771610 -2.951052 9.014013 -25.296776 2.462206 -2.461091 -48.931736 -4.236074 6.455959 14.112777 -34.593562 -3.033986 18.376026 -6.369055 -8.175381 26.996730 7.606986 -2.610972 45.489545 18.059436 12.533025 -9.284094 37.502609 7.735854 -12.539701 8.670735 10.657535 
0.097162 -0.257078 0.975483 -14.256389 2.233167 89.313723 9.851276 -3.714910 -28.461975 -3.784129 -2.260123 22.137125 -0.225411 10.218925 -8.788043 0.000000 -0.000000 0.000000 -0.470835 -9.220585 4.341936 7.059222 -6.472664 10.257857 1.495851 -8.133223 -23.848414 0.000000 -0.000000 0.000000 -0.460410 7.420136 15.531118 1.572232 -1.552922 -8.125111 2.174948 1.507213 0.888743 2.845898 8.310814 -11.260187 -0.401496 -2.353747 8.901159 -25.139691 1.857508 -2.454352 -48.960877 -4.611432 6.772579 13.377017 -34.222744 -2.334202 18.859934 -6.149623 -8.490884 26.599420 7.118110 -2.566557 45.966606 16.486050 12.395340 -9.001766 36.678064 8.048030 -13.095696 8.467927 10.201607 
0.092782 -0.248296 0.974942 -14.419153 2.029652 88.609792 10.094356 -3.607243 -28.181109 -3.436042 -1.493696 21.869167 -0.911500 10.363546 -7.130298 0.000000 -0.000000 0.000000 0.062595 -7.798173 4.729389 7.095544 -6.578628 9.840770 1.168146 -8.743677 -23.628573 0.000000 -0.000000 0.000000 -0.562312 7.050429 16.870181 1.460280 -1.526425 -8.777310 2.221768 1.370218 1.015348 2.574819 8.498045 -11.053082 -0.057649 -1.849937 9.151542 -25.372605 1.310143 -2.450361 -48.838813 -5.010932 6.814016 13.239951 -33.916656 -2.564841 17.077182 -6.636511 -7.967700 26.284781 6.572103 -2.693445 46.090217 14.448691 12.515755 -8.950044 36.046099 8.549754 -11.326115 7.768139 10.108191 
